<?xml version="1.0" encoding="UTF-8"?><svg xmlns="http://www.w3.org/2000/svg" xmlns:xlink="http://www.w3.org/1999/xlink" height="322pt" style="width:1107px;height:322px;" version="1.1" viewBox="0 0 1107 322" width="1107pt">
    <defs>
        <filter height="300%" id="f1" width="300%" x="-1" y="-1">
            <feGaussianBlur result="blurOut" stdDeviation="2.0"/>
            <feColorMatrix in="blurOut" result="blurOut2" type="matrix" values="0 0 0 0 0 0 0 0 0 0 0 0 0 0 0 0 0 0 .4 0"/>
            <feOffset dx="4.0" dy="4.0" in="blurOut2" result="blurOut3"/>
            <feBlend in="SourceGraphic" in2="blurOut3" mode="normal"/>
        </filter>
    </defs>
    <g>
        <polygon fill="#FFFFFF" filter="url(#f1)" points="14,16,173,16,180,38.4883,864,38.4883,864,315,14,315,14,16" style="stroke: #000000; stroke-width: 2.0;"/>
        <line style="stroke: #000000; stroke-width: 2.0;" x1="14" x2="180" y1="38.4883" y2="38.4883"/>
        <text fill="#000000" font-family="sans-serif" font-size="14" font-weight="bold" lengthAdjust="spacingAndGlyphs" textLength="153" x="17" y="32.5352">flocking.java.flocking</text>
        <polygon fill="#FFFFFF" filter="url(#f1)" points="872,124,935,124,942,146.4883,1100,146.4883,1100,207,872,207,872,124" style="stroke: #000000; stroke-width: 2.0;"/>
        <line style="stroke: #000000; stroke-width: 2.0;" x1="872" x2="942" y1="146.4883" y2="146.4883"/>
        <text fill="#000000" font-family="sans-serif" font-size="14" font-weight="bold" lengthAdjust="spacingAndGlyphs" textLength="57" x="875" y="140.5352">java.util</text>
        <rect fill="#FEFECE" filter="url(#f1)" height="48" style="stroke: #A80036; stroke-width: 1.5;" width="138" x="529" y="43"/>
        <ellipse cx="544" cy="59" fill="#ADD1B2" rx="11" ry="11" style="stroke: #A80036; stroke-width: 1.0;"/>
        <path d="M546.9731,64.6431 Q546.3921,64.9419 545.7529,65.0913 Q545.1138,65.2407 544.4082,65.2407 Q541.9014,65.2407 540.5815,63.5889 Q539.2617,61.937 539.2617,58.8159 Q539.2617,55.6865 540.5815,54.0347 Q541.9014,52.3828 544.4082,52.3828 Q545.1138,52.3828 545.7612,52.5322 Q546.4087,52.6816 546.9731,52.9805 L546.9731,55.7031 Q546.3423,55.1221 545.7488,54.8523 Q545.1553,54.5825 544.5244,54.5825 Q543.1797,54.5825 542.4949,55.6492 Q541.8101,56.7158 541.8101,58.8159 Q541.8101,60.9077 542.4949,61.9744 Q543.1797,63.041 544.5244,63.041 Q545.1553,63.041 545.7488,62.7712 Q546.3423,62.5015 546.9731,61.9204 Z "/>
        <text fill="#000000" font-family="sans-serif" font-size="12" lengthAdjust="spacingAndGlyphs" textLength="106" x="558" y="63.5352">AlignmentBehavior</text>
        <line style="stroke: #A80036; stroke-width: 1.5;" x1="530" x2="666" y1="75" y2="75"/>
        <line style="stroke: #A80036; stroke-width: 1.5;" x1="530" x2="666" y1="83" y2="83"/>
        <rect fill="#FEFECE" filter="url(#f1)" height="48" style="stroke: #A80036; stroke-width: 1.5;" width="57" x="798.5" y="43"/>
        <ellipse cx="813.5" cy="59" fill="#ADD1B2" rx="11" ry="11" style="stroke: #A80036; stroke-width: 1.0;"/>
        <path d="M816.4731,64.6431 Q815.8921,64.9419 815.2529,65.0913 Q814.6138,65.2407 813.9082,65.2407 Q811.4014,65.2407 810.0815,63.5889 Q808.7617,61.937 808.7617,58.8159 Q808.7617,55.6865 810.0815,54.0347 Q811.4014,52.3828 813.9082,52.3828 Q814.6138,52.3828 815.2612,52.5322 Q815.9087,52.6816 816.4731,52.9805 L816.4731,55.7031 Q815.8423,55.1221 815.2488,54.8523 Q814.6553,54.5825 814.0244,54.5825 Q812.6797,54.5825 811.9949,55.6492 Q811.3101,56.7158 811.3101,58.8159 Q811.3101,60.9077 811.9949,61.9744 Q812.6797,63.041 814.0244,63.041 Q814.6553,63.041 815.2488,62.7712 Q815.8423,62.5015 816.4731,61.9204 Z "/>
        <text fill="#000000" font-family="sans-serif" font-size="12" lengthAdjust="spacingAndGlyphs" textLength="25" x="827.5" y="63.5352">Boid</text>
        <line style="stroke: #A80036; stroke-width: 1.5;" x1="799.5" x2="854.5" y1="75" y2="75"/>
        <line style="stroke: #A80036; stroke-width: 1.5;" x1="799.5" x2="854.5" y1="83" y2="83"/>
        <rect fill="#FEFECE" filter="url(#f1)" height="48" style="stroke: #A80036; stroke-width: 1.5;" width="133" x="360.5" y="43"/>
        <ellipse cx="375.5" cy="59" fill="#ADD1B2" rx="11" ry="11" style="stroke: #A80036; stroke-width: 1.0;"/>
        <path d="M378.4731,64.6431 Q377.8921,64.9419 377.2529,65.0913 Q376.6138,65.2407 375.9082,65.2407 Q373.4014,65.2407 372.0815,63.5889 Q370.7617,61.937 370.7617,58.8159 Q370.7617,55.6865 372.0815,54.0347 Q373.4014,52.3828 375.9082,52.3828 Q376.6138,52.3828 377.2612,52.5322 Q377.9087,52.6816 378.4731,52.9805 L378.4731,55.7031 Q377.8423,55.1221 377.2488,54.8523 Q376.6553,54.5825 376.0244,54.5825 Q374.6797,54.5825 373.9949,55.6492 Q373.3101,56.7158 373.3101,58.8159 Q373.3101,60.9077 373.9949,61.9744 Q374.6797,63.041 376.0244,63.041 Q376.6553,63.041 377.2488,62.7712 Q377.8423,62.5015 378.4731,61.9204 Z "/>
        <text fill="#000000" font-family="sans-serif" font-size="12" lengthAdjust="spacingAndGlyphs" textLength="101" x="389.5" y="63.5352">CohesionBehavior</text>
        <line style="stroke: #A80036; stroke-width: 1.5;" x1="361.5" x2="492.5" y1="75" y2="75"/>
        <line style="stroke: #A80036; stroke-width: 1.5;" x1="361.5" x2="492.5" y1="83" y2="83"/>
        <rect fill="#FEFECE" filter="url(#f1)" height="48" style="stroke: #A80036; stroke-width: 1.5;" width="61" x="702.5" y="43"/>
        <ellipse cx="717.5" cy="59" fill="#ADD1B2" rx="11" ry="11" style="stroke: #A80036; stroke-width: 1.0;"/>
        <path d="M720.4731,64.6431 Q719.8921,64.9419 719.2529,65.0913 Q718.6138,65.2407 717.9082,65.2407 Q715.4014,65.2407 714.0815,63.5889 Q712.7617,61.937 712.7617,58.8159 Q712.7617,55.6865 714.0815,54.0347 Q715.4014,52.3828 717.9082,52.3828 Q718.6138,52.3828 719.2612,52.5322 Q719.9087,52.6816 720.4731,52.9805 L720.4731,55.7031 Q719.8423,55.1221 719.2488,54.8523 Q718.6553,54.5825 718.0244,54.5825 Q716.6797,54.5825 715.9949,55.6492 Q715.3101,56.7158 715.3101,58.8159 Q715.3101,60.9077 715.9949,61.9744 Q716.6797,63.041 718.0244,63.041 Q718.6553,63.041 719.2488,62.7712 Q719.8423,62.5015 720.4731,61.9204 Z "/>
        <text fill="#000000" font-family="sans-serif" font-size="12" lengthAdjust="spacingAndGlyphs" textLength="29" x="731.5" y="63.5352">Flock</text>
        <line style="stroke: #A80036; stroke-width: 1.5;" x1="703.5" x2="762.5" y1="75" y2="75"/>
        <line style="stroke: #A80036; stroke-width: 1.5;" x1="703.5" x2="762.5" y1="83" y2="83"/>
        <rect fill="#FEFECE" filter="url(#f1)" height="48" style="stroke: #A80036; stroke-width: 1.5;" width="110" x="285" y="151"/>
        <ellipse cx="300" cy="167" fill="#ADD1B2" rx="11" ry="11" style="stroke: #A80036; stroke-width: 1.0;"/>
        <path d="M302.9731,172.6431 Q302.3921,172.9419 301.7529,173.0913 Q301.1138,173.2407 300.4082,173.2407 Q297.9014,173.2407 296.5815,171.5889 Q295.2617,169.937 295.2617,166.8159 Q295.2617,163.6865 296.5815,162.0347 Q297.9014,160.3828 300.4082,160.3828 Q301.1138,160.3828 301.7612,160.5322 Q302.4087,160.6816 302.9731,160.9805 L302.9731,163.7031 Q302.3423,163.1221 301.7488,162.8523 Q301.1553,162.5825 300.5244,162.5825 Q299.1797,162.5825 298.4949,163.6492 Q297.8101,164.7158 297.8101,166.8159 Q297.8101,168.9077 298.4949,169.9744 Q299.1797,171.041 300.5244,171.041 Q301.1553,171.041 301.7488,170.7712 Q302.3423,170.5015 302.9731,169.9204 Z "/>
        <text fill="#000000" font-family="sans-serif" font-size="12" lengthAdjust="spacingAndGlyphs" textLength="78" x="314" y="171.5352">FlockBehavior</text>
        <line style="stroke: #A80036; stroke-width: 1.5;" x1="286" x2="394" y1="183" y2="183"/>
        <line style="stroke: #A80036; stroke-width: 1.5;" x1="286" x2="394" y1="191" y2="191"/>
        <rect fill="#FEFECE" filter="url(#f1)" height="48" style="stroke: #A80036; stroke-width: 1.5;" width="136" x="25" y="151"/>
        <ellipse cx="40" cy="167" fill="#ADD1B2" rx="11" ry="11" style="stroke: #A80036; stroke-width: 1.0;"/>
        <path d="M42.9731,172.6431 Q42.3921,172.9419 41.7529,173.0913 Q41.1138,173.2407 40.4082,173.2407 Q37.9014,173.2407 36.5815,171.5889 Q35.2617,169.937 35.2617,166.8159 Q35.2617,163.6865 36.5815,162.0347 Q37.9014,160.3828 40.4082,160.3828 Q41.1138,160.3828 41.7612,160.5322 Q42.4087,160.6816 42.9731,160.9805 L42.9731,163.7031 Q42.3423,163.1221 41.7488,162.8523 Q41.1553,162.5825 40.5244,162.5825 Q39.1797,162.5825 38.4949,163.6492 Q37.8101,164.7158 37.8101,166.8159 Q37.8101,168.9077 38.4949,169.9744 Q39.1797,171.041 40.5244,171.041 Q41.1553,171.041 41.7488,170.7712 Q42.3423,170.5015 42.9731,169.9204 Z "/>
        <text fill="#000000" font-family="sans-serif" font-size="12" lengthAdjust="spacingAndGlyphs" textLength="104" x="54" y="171.5352">IndividualBehavior</text>
        <line style="stroke: #A80036; stroke-width: 1.5;" x1="26" x2="160" y1="183" y2="183"/>
        <line style="stroke: #A80036; stroke-width: 1.5;" x1="26" x2="160" y1="191" y2="191"/>
        <rect fill="#FEFECE" filter="url(#f1)" height="48" style="stroke: #A80036; stroke-width: 1.5;" width="142" x="183" y="43"/>
        <ellipse cx="198" cy="59" fill="#ADD1B2" rx="11" ry="11" style="stroke: #A80036; stroke-width: 1.0;"/>
        <path d="M200.9731,64.6431 Q200.3921,64.9419 199.7529,65.0913 Q199.1138,65.2407 198.4082,65.2407 Q195.9014,65.2407 194.5815,63.5889 Q193.2617,61.937 193.2617,58.8159 Q193.2617,55.6865 194.5815,54.0347 Q195.9014,52.3828 198.4082,52.3828 Q199.1138,52.3828 199.7612,52.5322 Q200.4087,52.6816 200.9731,52.9805 L200.9731,55.7031 Q200.3423,55.1221 199.7488,54.8523 Q199.1553,54.5825 198.5244,54.5825 Q197.1797,54.5825 196.4949,55.6492 Q195.8101,56.7158 195.8101,58.8159 Q195.8101,60.9077 196.4949,61.9744 Q197.1797,63.041 198.5244,63.041 Q199.1553,63.041 199.7488,62.7712 Q200.3423,62.5015 200.9731,61.9204 Z "/>
        <text fill="#000000" font-family="sans-serif" font-size="12" lengthAdjust="spacingAndGlyphs" textLength="110" x="212" y="63.5352">SeparationBehavior</text>
        <line style="stroke: #A80036; stroke-width: 1.5;" x1="184" x2="324" y1="75" y2="75"/>
        <line style="stroke: #A80036; stroke-width: 1.5;" x1="184" x2="324" y1="83" y2="83"/>
        <rect fill="#FEFECE" filter="url(#f1)" height="48" style="stroke: #A80036; stroke-width: 1.5;" width="125" x="22.5" y="43"/>
        <ellipse cx="37.5" cy="59" fill="#ADD1B2" rx="11" ry="11" style="stroke: #A80036; stroke-width: 1.0;"/>
        <path d="M40.4731,64.6431 Q39.8921,64.9419 39.2529,65.0913 Q38.6138,65.2407 37.9082,65.2407 Q35.4014,65.2407 34.0815,63.5889 Q32.7617,61.937 32.7617,58.8159 Q32.7617,55.6865 34.0815,54.0347 Q35.4014,52.3828 37.9082,52.3828 Q38.6138,52.3828 39.2612,52.5322 Q39.9087,52.6816 40.4731,52.9805 L40.4731,55.7031 Q39.8423,55.1221 39.2488,54.8523 Q38.6553,54.5825 38.0244,54.5825 Q36.6797,54.5825 35.9949,55.6492 Q35.3101,56.7158 35.3101,58.8159 Q35.3101,60.9077 35.9949,61.9744 Q36.6797,63.041 38.0244,63.041 Q38.6553,63.041 39.2488,62.7712 Q39.8423,62.5015 40.4731,61.9204 Z "/>
        <text fill="#000000" font-family="sans-serif" font-size="12" lengthAdjust="spacingAndGlyphs" textLength="93" x="51.5" y="63.5352">WanderBehavior</text>
        <line style="stroke: #A80036; stroke-width: 1.5;" x1="23.5" x2="146.5" y1="75" y2="75"/>
        <line style="stroke: #A80036; stroke-width: 1.5;" x1="23.5" x2="146.5" y1="83" y2="83"/>
        <rect fill="#FEFECE" filter="url(#f1)" height="48" style="stroke: #A80036; stroke-width: 1.5;" width="81" x="175.5" y="259"/>
        <ellipse cx="190.5" cy="275" fill="#B4A7E5" rx="11" ry="11" style="stroke: #A80036; stroke-width: 1.0;"/>
        <path d="M186.4277,270.7651 L186.4277,268.6069 L193.8071,268.6069 L193.8071,270.7651 L191.3418,270.7651 L191.3418,278.8418 L193.8071,278.8418 L193.8071,281 L186.4277,281 L186.4277,278.8418 L188.8931,278.8418 L188.8931,270.7651 Z "/>
        <text fill="#000000" font-family="sans-serif" font-size="12" font-style="italic" lengthAdjust="spacingAndGlyphs" textLength="49" x="204.5" y="279.5352">Behavior</text>
        <line style="stroke: #A80036; stroke-width: 1.5;" x1="176.5" x2="255.5" y1="291" y2="291"/>
        <line style="stroke: #A80036; stroke-width: 1.5;" x1="176.5" x2="255.5" y1="299" y2="299"/>
        <rect fill="#FEFECE" filter="url(#f1)" height="48" style="stroke: #A80036; stroke-width: 1.5;" width="87" x="1004.5" y="151"/>
        <ellipse cx="1019.5" cy="167" fill="#ADD1B2" rx="11" ry="11" style="stroke: #A80036; stroke-width: 1.0;"/>
        <path d="M1022.4731,172.6431 Q1021.8921,172.9419 1021.2529,173.0913 Q1020.6138,173.2407 1019.9082,173.2407 Q1017.4014,173.2407 1016.0815,171.5889 Q1014.7617,169.937 1014.7617,166.8159 Q1014.7617,163.6865 1016.0815,162.0347 Q1017.4014,160.3828 1019.9082,160.3828 Q1020.6138,160.3828 1021.2612,160.5322 Q1021.9087,160.6816 1022.4731,160.9805 L1022.4731,163.7031 Q1021.8423,163.1221 1021.2488,162.8523 Q1020.6553,162.5825 1020.0244,162.5825 Q1018.6797,162.5825 1017.9949,163.6492 Q1017.3101,164.7158 1017.3101,166.8159 Q1017.3101,168.9077 1017.9949,169.9744 Q1018.6797,171.041 1020.0244,171.041 Q1020.6553,171.041 1021.2488,170.7712 Q1021.8423,170.5015 1022.4731,169.9204 Z "/>
        <text fill="#000000" font-family="sans-serif" font-size="12" lengthAdjust="spacingAndGlyphs" textLength="55" x="1033.5" y="171.5352">Collection</text>
        <line style="stroke: #A80036; stroke-width: 1.5;" x1="1005.5" x2="1090.5" y1="183" y2="183"/>
        <line style="stroke: #A80036; stroke-width: 1.5;" x1="1005.5" x2="1090.5" y1="191" y2="191"/>
        <rect fill="#FEFECE" filter="url(#f1)" height="48" style="stroke: #A80036; stroke-width: 1.5;" width="89" x="880.5" y="151"/>
        <ellipse cx="895.5" cy="167" fill="#ADD1B2" rx="11" ry="11" style="stroke: #A80036; stroke-width: 1.0;"/>
        <path d="M898.4731,172.6431 Q897.8921,172.9419 897.2529,173.0913 Q896.6138,173.2407 895.9082,173.2407 Q893.4014,173.2407 892.0815,171.5889 Q890.7617,169.937 890.7617,166.8159 Q890.7617,163.6865 892.0815,162.0347 Q893.4014,160.3828 895.9082,160.3828 Q896.6138,160.3828 897.2612,160.5322 Q897.9087,160.6816 898.4731,160.9805 L898.4731,163.7031 Q897.8423,163.1221 897.2488,162.8523 Q896.6553,162.5825 896.0244,162.5825 Q894.6797,162.5825 893.9949,163.6492 Q893.3101,164.7158 893.3101,166.8159 Q893.3101,168.9077 893.9949,169.9744 Q894.6797,171.041 896.0244,171.041 Q896.6553,171.041 897.2488,170.7712 Q897.8423,170.5015 898.4731,169.9204 Z "/>
        <text fill="#000000" font-family="sans-serif" font-size="12" lengthAdjust="spacingAndGlyphs" textLength="57" x="909.5" y="171.5352">LinkedList</text>
        <line style="stroke: #A80036; stroke-width: 1.5;" x1="881.5" x2="968.5" y1="183" y2="183"/>
        <line style="stroke: #A80036; stroke-width: 1.5;" x1="881.5" x2="968.5" y1="191" y2="191"/>
        <path d="M542.018,91 C504.531,106.402 454.778,126.843 414.028,143.585 " fill="none" style="stroke: #A80036; stroke-width: 1.0;"/>
        <polygon fill="none" points="416.589,150.101,395.429,151.227,411.268,137.151,416.589,150.101" style="stroke: #A80036; stroke-width: 1.0;"/>
        <path d="M855.734,74.797 C888.785,83.339 944.018,99.864 987,124 C998.595,130.511 1010.17,139.277 1020.07,147.65 " fill="none" style="stroke: #A80036; stroke-width: 1.0; stroke-dasharray: 7.0,7.0;"/>
        <polygon fill="#A80036" points="1023.92,150.958,1019.6981,142.0599,1020.1267,147.7005,1014.4862,148.1291,1023.92,150.958" style="stroke: #A80036; stroke-width: 1.0;"/>
        <path d="M848.265,91 C863.442,107.417 883.913,129.559 899.894,146.844 " fill="none" style="stroke: #A80036; stroke-width: 1.0; stroke-dasharray: 7.0,7.0;"/>
        <polygon fill="#A80036" points="903.439,150.678,900.2665,141.3541,900.0448,147.0066,894.3922,146.7849,903.439,150.678" style="stroke: #A80036; stroke-width: 1.0;"/>
        <path d="M408.122,91 C397.592,103.83 384.192,120.157 372.068,134.929 " fill="none" style="stroke: #A80036; stroke-width: 1.0;"/>
        <polygon fill="none" points="377.241,139.66,359.141,150.678,366.419,130.778,377.241,139.66" style="stroke: #A80036; stroke-width: 1.0;"/>
        <path d="M763.714,84.313 C769.351,86.844 775.267,89.209 781,91 C869.503,118.653 902.439,85.96 987,124 C999.568,129.654 1011.68,138.59 1021.76,147.353 " fill="none" style="stroke: #A80036; stroke-width: 1.0; stroke-dasharray: 7.0,7.0;"/>
        <polygon fill="#A80036" points="1025.66,150.826,1021.6031,141.8515,1021.9275,147.499,1016.28,147.8235,1025.66,150.826" style="stroke: #A80036; stroke-width: 1.0;"/>
        <path d="M763.523,83.181 C769.283,85.887 775.291,88.604 781,91 C820.67,107.649 835.37,101.437 872,124 C882.367,130.386 892.43,139.037 900.953,147.349 " fill="none" style="stroke: #A80036; stroke-width: 1.0; stroke-dasharray: 7.0,7.0;"/>
        <polygon fill="#A80036" points="904.507,150.882,900.9436,141.7004,900.9608,147.3572,895.3039,147.3743,904.507,150.882" style="stroke: #A80036; stroke-width: 1.0;"/>
        <path d="M313.094,199 C297.198,212.589 276.713,230.1 258.66,245.5328 " fill="none" style="stroke: #A80036; stroke-width: 1.0;"/>
        <polygon fill="none" points="263.033,251.0036,243.282,258.6784,253.936,240.3619,263.033,251.0036" style="stroke: #A80036; stroke-width: 1.0;"/>
        <path d="M119.689,199 C135.457,212.589 155.776,230.1 173.684,245.5328 " fill="none" style="stroke: #A80036; stroke-width: 1.0;"/>
        <polygon fill="none" points="178.358,240.3194,188.938,258.6784,169.218,250.9246,178.358,240.3194" style="stroke: #A80036; stroke-width: 1.0;"/>
        <path d="M272.661,91 C283.07,103.83 296.316,120.157 308.301,134.929 " fill="none" style="stroke: #A80036; stroke-width: 1.0;"/>
        <polygon fill="none" points="313.914,130.737,321.079,150.678,303.042,139.557,313.914,130.737" style="stroke: #A80036; stroke-width: 1.0;"/>
        <path d="M86.7359,91 C87.6105,102.588 88.7003,117.029 89.7246,130.601 " fill="none" style="stroke: #A80036; stroke-width: 1.0;"/>
        <polygon fill="none" points="96.7148,130.208,91.2399,150.678,82.7545,131.262,96.7148,130.208" style="stroke: #A80036; stroke-width: 1.0;"/>
    </g>
</svg>
